<?xml version="1.0" standalone="no"?><!DOCTYPE svg PUBLIC "-//W3C//DTD SVG 1.1//EN" "http://www.w3.org/Graphics/SVG/1.1/DTD/svg11.dtd"><svg t="1708828144579" class="icon" viewBox="0 0 1024 1024" version="1.1" xmlns="http://www.w3.org/2000/svg" p-id="6027" xmlns:xlink="http://www.w3.org/1999/xlink" width="40" height="40"><path d="M353.339 648.273c-19.938-16.151-43.908-23.79-68.019-23.79-31.377 0-62.989 12.936-86.266 36.88C110.316 752.65 76.572 857.996 64.029 916.568c-4.37 20.406 11.242 38.961 30.938 38.961 2.2 0 4.448-0.23 6.728-0.717 59.539-12.688 168.003-47.379 260.658-140.034 46.562-46.561 43.556-123.919-9.014-166.505zM305.785 758.21c-44.581 44.58-93.78 73.273-136.912 91.666 17.806-41.751 45.292-89.284 87.545-132.75 7.695-7.916 18.5-12.643 28.902-12.643 6.844 0 12.786 2.003 17.662 5.953 9.411 7.623 11.791 16.954 12.13 23.438 0.28 5.327-0.562 15.571-9.327 24.336zM656.51 250.23c-28.663 0-57.327 10.935-79.196 32.804-43.738 43.739-43.738 114.653 0 158.392 21.869 21.869 50.533 32.805 79.196 32.805s57.327-10.936 79.196-32.805c43.738-43.738 43.738-114.652 0-158.392-21.869-21.869-50.533-32.804-79.196-32.804z m22.627 134.627c-8.154 8.155-17.677 9.373-22.627 9.373s-14.473-1.218-22.628-9.373c-12.477-12.477-12.477-32.778 0-45.254 8.155-8.155 17.678-9.373 22.628-9.373s14.473 1.218 22.627 9.372c12.477 12.477 12.477 32.779 0 45.255z" fill="#1296db" p-id="6028"></path><path d="M861.197 61.673c-3.443 0-6.925 0.183-10.441 0.558-111.507 11.894-282.031 48.373-392.236 158.578-21.362 21.363-41.082 43.3-59.368 65.495-61.698 7.477-119.748 54.031-170.219 104.832-45.337 45.634-89.771 118.617-118.615 169.404-9.154 16.117-6.061 37.193 8.777 48.303 6.687 5.007 14.413 7.421 22.046 7.421a36.22 36.22 0 0 0 24.56-9.604c18.063-16.631 84.627-69.372 158.989-73.456 20.19 31.625 43.977 61.613 71.605 89.241 28.452 28.453 59.386 52.876 92.056 73.442-3.687 74.74-56.791 141.791-73.491 159.932-11.706 12.716-13.039 32.107-2.182 46.607 6.925 9.248 17.723 13.934 28.777 13.934 6.68 0 13.453-1.711 19.523-5.158 50.787-28.844 123.771-73.279 169.404-118.616 52.266-51.925 99.929-111.882 105.271-175.572a920.63 920.63 0 0 0 62.277-56.794c110.206-110.204 146.685-280.73 158.58-392.236 6.129-57.459-39.059-106.311-95.313-106.311zM741.363 503.651a844.146 844.146 0 0 1-56.867 51.857l-25.761 21.428-2.801 33.39c-2.679 31.928-30.245 74.154-81.936 125.507-3.829 3.805-8.008 7.704-12.536 11.699 3.563-15.276 5.978-31.229 6.79-47.703l2.305-46.722-39.588-24.922c-28.296-17.813-54.574-38.776-78.107-62.31-22.757-22.756-43.193-48.232-60.743-75.721l-25.15-39.394-46.666 2.563c-15.978 0.878-31.463 3.257-46.306 6.72 3.991-4.523 7.888-8.699 11.688-12.524 50.125-50.453 91.539-77.974 123.09-81.797l31.77-3.85 20.35-24.699c17.39-21.106 35.623-41.226 54.193-59.797 96.315-96.313 256.965-126.297 344.15-135.598 0.664-0.07 1.323-0.106 1.959-0.106 6.072 0 9.992 3.352 11.789 5.35 3.147 3.501 4.484 7.699 3.975 12.477-9.301 87.189-39.284 247.839-135.598 344.152z" fill="#1296db" p-id="6029"></path></svg>