<?xml version="1.0" standalone="no"?><!DOCTYPE svg PUBLIC "-//W3C//DTD SVG 1.1//EN" "http://www.w3.org/Graphics/SVG/1.1/DTD/svg11.dtd"><svg t="1706244158715" class="icon" viewBox="0 0 1024 1024" version="1.1" xmlns="http://www.w3.org/2000/svg" p-id="5115" xmlns:xlink="http://www.w3.org/1999/xlink" width="16" height="16"><path d="M540.444444 108.088889a34.133333 34.133333 0 1 1 0 68.266667h-341.333333a22.755556 22.755556 0 0 0-22.755555 22.755555v625.777778c0 12.515556 10.24 22.755556 22.755555 22.755555h625.777778a22.755556 22.755556 0 0 0 22.755555-22.755555v-284.444445a34.133333 34.133333 0 0 1 68.266667 0v284.444445a91.022222 91.022222 0 0 1-91.022222 91.022222h-625.777778a91.022222 91.022222 0 0 1-91.022222-91.022222v-625.777778a91.022222 91.022222 0 0 1 91.022222-91.022222z m317.212445 10.012444a34.133333 34.133333 0 0 1 48.241778 48.241778l-341.333334 341.333333a34.133333 34.133333 0 0 1-48.241777-48.241777z" fill="#1296db" p-id="5116"></path></svg>