<?xml version="1.0" standalone="no"?><!DOCTYPE svg PUBLIC "-//W3C//DTD SVG 1.1//EN" "http://www.w3.org/Graphics/SVG/1.1/DTD/svg11.dtd"><svg t="1706153052524" class="icon" viewBox="0 0 1024 1024" version="1.1" xmlns="http://www.w3.org/2000/svg" p-id="4251" xmlns:xlink="http://www.w3.org/1999/xlink" width="13" height="13"><path d="M892.144941 379.422118l42.586353-42.586353-104.387765-104.387765 45.598118-45.357176-42.465882-42.706824-490.676706 488.327529a179.260235 179.260235 0 0 0-102.580706-32.225882c-99.629176 0-180.705882 81.076706-180.705882 180.705882s81.076706 180.705882 180.705882 180.705883 180.705882-81.076706 180.705882-180.705883c0-39.815529-13.372235-76.378353-35.237647-106.255058l317.078588-315.512471 104.688942 104.688941 42.586353-42.586353-104.628706-104.56847 42.224941-42.044236 104.508235 104.508236z m-651.986823 522.24c-66.439529 0-120.470588-54.031059-120.470589-120.470589s54.031059-120.470588 120.470589-120.470588 120.470588 54.031059 120.470588 120.470588-54.031059 120.470588-120.470588 120.470589z" p-id="4252" fill="#1296db"></path></svg>