<?xml version="1.0" standalone="no"?><!DOCTYPE svg PUBLIC "-//W3C//DTD SVG 1.1//EN" "http://www.w3.org/Graphics/SVG/1.1/DTD/svg11.dtd"><svg t="1704417289730" class="icon" viewBox="0 0 1256 1024" version="1.1" xmlns="http://www.w3.org/2000/svg" p-id="5932" xmlns:xlink="http://www.w3.org/1999/xlink" width="16" height="14"><path d="M1036.22666665 192.03H201.10666665c-16.5 0-30 13.5-30 30v579.94c0 16.5 13.5 30 30 30h835.12c16.5 0 30-13.5 30-30V222.03c0-16.5-13.5-30-30-30zM1021.46666665 761.37c0 14.19-12.15 25.8-27 25.8H242.86666665c-14.85 0-27-11.61-27-25.8V262.63c0-14.19 12.15-25.8 27-25.8h751.6c14.85 0 27 11.61 27 25.8v498.74z" fill="#1296db" p-id="5933"></path><path d="M280.44666665 275.35H573.56666665c13.42 0 24.3 10.88 24.3 24.3v169.13c0 13.42-10.88 24.3-24.3 24.3H280.44666665c-13.42 0-24.3-10.88-24.3-24.3V297.54c0-12.21 10.93-22.19 24.3-22.19zM280.44666665 533.36H573.56666665c13.42 0 24.3 10.88 24.3 24.3v166.69c0 13.42-10.88 24.3-24.3 24.3H280.44666665c-13.37 0-24.3-9.98-24.3-22.19v-168.8c0-13.42 10.88-24.3 24.3-24.3zM981.18666665 297.54v171.24c0 13.42-10.88 24.3-24.3 24.3H662.43666665c-13.42 0-24.3-10.88-24.3-24.3V299.65c0-13.42 10.88-24.3 24.3-24.3h294.45c13.37 0 24.3 9.98 24.3 22.19zM662.43666665 533.36h294.45c13.42 0 24.3 10.88 24.3 24.3v168.8c0 12.21-10.93 22.19-24.3 22.19H662.43666665c-13.42 0-24.3-10.88-24.3-24.3V557.66c0-13.42 10.88-24.3 24.3-24.3z" fill="#1296db" p-id="5934"></path></svg>