<?xml version="1.0" standalone="no"?><!DOCTYPE svg PUBLIC "-//W3C//DTD SVG 1.1//EN" "http://www.w3.org/Graphics/SVG/1.1/DTD/svg11.dtd"><svg t="1706058615600" class="icon" viewBox="0 0 1024 1024" version="1.1" xmlns="http://www.w3.org/2000/svg" p-id="5324" xmlns:xlink="http://www.w3.org/1999/xlink" width="16" height="16"><path d="M237 233.6c15.8 0 30.7 3 44.9 8.8V143c0-24.7-20.2-45-45-45-12.2 0.1-23.5 5.1-31.7 13.3-8.1 8.1-13.2 19.4-13.2 31.7v100.3c14-7.1 29-10.3 45-9.7zM237 472.4c-15.8 0-30.8-3-45-8.8v417.2c0 24.7 20.2 45 45 45 12.4 0 23.6-5.1 31.7-13.2 8.1-8.1 13.2-19.4 13.2-31.7V462.7C268 469.8 253 473 237 472.4zM513 786.4c-16.1-0.1-31.5-3.1-46-9.2v103.6c0 24.7 20.2 45 45 45 12.4 0 23.6-5.1 31.7-13.2 8.1-8.1 13.2-19.4 13.2-31.7V777.2c-13.6 6.7-28.3 9.8-43.9 9.2zM513 547.6c15.4 0 30 2.8 43.9 8.4V143c0-24.7-20.2-45-45-45-12.2 0.1-23.5 5.1-31.7 13.3-8.1 8.1-13.2 19.4-13.2 31.7v414.8c14.2-7.4 29.6-10.9 46-10.2zM785 237.6c16.5 0.1 32.1 3.3 46.9 9.6V143c0-24.7-20.2-45-45-45-12.2 0.1-23.5 5.1-31.7 13.3-8.1 8.1-13.2 19.4-13.2 31.7v103.3c13.4-6.4 27.7-9.3 43-8.7zM831 466.2c-14.2 7.5-29.6 10.9-46 10.3-15 0-29.4-2.7-43-8v412.4c0 24.7 20.2 45 45 45 12.4 0 23.6-5.1 31.7-13.2 8.1-8.1 13.2-19.4 13.2-31.7V465.8c-0.3 0.1-0.6 0.3-0.9 0.4z" fill="#1296db" p-id="5325"></path><path d="M237.6 262.9c49.7 0 90.2 40.5 90.2 90.2s-40.5 90.2-90.2 90.2-90.2-40.5-90.2-90.2 40.4-90.2 90.2-90.2m0-70c-88.5 0-160.2 71.7-160.2 160.2s71.7 160.2 160.2 160.2 160.2-71.7 160.2-160.2-71.7-160.2-160.2-160.2zM785.6 262.9c49.7 0 90.2 40.5 90.2 90.2s-40.5 90.2-90.2 90.2-90.2-40.5-90.2-90.2 40.4-90.2 90.2-90.2m0-70c-88.5 0-160.2 71.7-160.2 160.2s71.7 160.2 160.2 160.2 160.2-71.7 160.2-160.2-71.7-160.2-160.2-160.2zM511.6 581.9c49.7 0 90.2 40.5 90.2 90.2s-40.5 90.2-90.2 90.2-90.2-40.5-90.2-90.2 40.4-90.2 90.2-90.2m0-70c-88.5 0-160.2 71.7-160.2 160.2s71.7 160.2 160.2 160.2 160.2-71.7 160.2-160.2-71.7-160.2-160.2-160.2z" fill="#1296db" p-id="5326"></path></svg>