<?xml version="1.0" standalone="no"?><!DOCTYPE svg PUBLIC "-//W3C//DTD SVG 1.1//EN" "http://www.w3.org/Graphics/SVG/1.1/DTD/svg11.dtd"><svg t="1704289486293" class="icon" viewBox="0 0 1024 1024" version="1.1" xmlns="http://www.w3.org/2000/svg" p-id="16343" xmlns:xlink="http://www.w3.org/1999/xlink" width="16" height="16"><path d="M735.851819 170.625117h-139.327861v318.60723h139.327861v-71.243675c0-20.859749 17.331399-38.210227 39.057337-38.210227h190.281615c21.727209 0 39.082775 17.355566 39.082775 38.210227v187.747918c0 20.859749-17.355566 38.484965-39.082775 38.484965H774.912972c-21.725938 0-39.057336-17.629032-39.057337-38.484965v-70.974025H596.523958v318.612318h139.327861v-70.967665a38.738081 38.738081 0 0 1 39.057337-38.484965h190.281615a38.759703 38.759703 0 0 1 39.082775 38.484965v187.447742a38.760975 38.760975 0 0 1-39.082775 38.484965H774.912972a38.739353 38.739353 0 0 1-39.061153-38.484965v-70.668761h-162.17183a23.294235 23.294235 0 0 1-23.683447-23.05511 21.611463 21.611463 0 0 1 0.55838-4.876602 32.51577 32.51577 0 0 1-0.55838-5.426079V170.625117H410.409206v191.273724a38.703738 38.703738 0 0 1-38.82966 38.484966H58.280104a38.847467 38.847467 0 0 1-38.575273-38.484966V53.570125c0-21.130672 17.635392-37.903691 38.575273-37.90369h313.299442c21.495717 0 38.82966 16.779379 38.82966 37.90369v71.543852h325.442613V53.570125c0-21.130672 17.331399-37.903691 39.057337-37.90369h190.281615c21.727209 0 39.082775 16.779379 39.082775 37.90369v188.023929c0 20.8801-17.355566 37.959656-39.082775 37.959655H774.912972c-21.725938 0-39.057336-17.079556-39.057337-37.959655v-70.974025z m77.886997-78.570026v111.328736h112.877954V92.055091h-112.874138z m0 728.811654v110.804698h112.877954v-110.804698h-112.874138z m0-364.66403v111.327464h112.877954v-111.33128h-112.874138zM332.775324 92.055091H97.362879v231.909533h235.412445V92.055091z" fill="#0065B3" p-id="16344"></path></svg>