<?xml version="1.0" standalone="no"?><!DOCTYPE svg PUBLIC "-//W3C//DTD SVG 1.1//EN" "http://www.w3.org/Graphics/SVG/1.1/DTD/svg11.dtd"><svg t="1704629675332" class="icon" viewBox="0 0 1024 1024" version="1.1" xmlns="http://www.w3.org/2000/svg" p-id="10272" xmlns:xlink="http://www.w3.org/1999/xlink" width="16" height="16"><path d="M402.076448 534.60995 632.42472 534.60995 632.42472 476.196563 402.076448 476.196563 402.076448 312.502363 650.704039 312.502363 650.704039 253.760494 318.935889 253.760494 318.935889 764.954129 665.253406 764.954129 665.253406 706.540741 402.076448 706.540741Z" p-id="10273" fill="#1296db"></path><path d="M829.430606 126.789685 195.172121 126.789685c-36.164664 0-65.586764 29.4221-65.586764 65.587787l0 635.012661c0 36.165688 29.4221 65.587787 65.586764 65.587787l634.258485 0c36.165688 0 65.587787-29.4221 65.587787-65.587787l0-635.012661C895.018394 156.212808 865.596294 126.789685 829.430606 126.789685zM831.061756 827.390133c0 0.899486-0.731664 1.63115-1.63115 1.63115L195.172121 829.021284c-0.898463 0-1.630127-0.731664-1.630127-1.63115l0-635.012661c0-0.899486 0.731664-1.63115 1.630127-1.63115l634.258485 0c0.899486 0 1.63115 0.731664 1.63115 1.63115L831.061756 827.390133z" p-id="10274" fill="#1296db"></path></svg>