<?xml version="1.0" standalone="no"?><!DOCTYPE svg PUBLIC "-//W3C//DTD SVG 1.1//EN" "http://www.w3.org/Graphics/SVG/1.1/DTD/svg11.dtd"><svg t="1704629874514" class="icon" viewBox="0 0 1024 1024" version="1.1" xmlns="http://www.w3.org/2000/svg" p-id="23896" xmlns:xlink="http://www.w3.org/1999/xlink" width="16" height="16"><path d="M853.333333 955.733333H170.666667c-66.030933 0-102.4-36.369067-102.4-102.4V170.666667c0-66.030933 36.369067-102.4 102.4-102.4h682.666666c66.030933 0 102.4 36.369067 102.4 102.4v682.666666c0 66.030933-36.369067 102.4-102.4 102.4zM170.666667 102.4c-47.223467 0-68.266667 21.0432-68.266667 68.266667v682.666666c0 47.223467 21.0432 68.266667 68.266667 68.266667h682.666666c47.223467 0 68.266667-21.0432 68.266667-68.266667V170.666667c0-47.223467-21.0432-68.266667-68.266667-68.266667H170.666667z m682.666666 768H680.96a17.066667 17.066667 0 1 1 0-34.133333H836.266667v-153.6a17.066667 17.066667 0 1 1 34.133333 0v170.666666a17.066667 17.066667 0 0 1-17.066667 17.066667z m-511.146666 0H170.666667a17.066667 17.066667 0 0 1-17.066667-17.066667V682.666667a17.066667 17.066667 0 1 1 34.133333 0v153.6h154.453334a17.066667 17.066667 0 1 1 0 34.133333zM853.333333 357.546667a17.066667 17.066667 0 0 1-17.066666-17.066667V187.733333h-155.306667a17.066667 17.066667 0 1 1 0-34.133333H853.333333a17.066667 17.066667 0 0 1 17.066667 17.066667v169.813333a17.066667 17.066667 0 0 1-17.066667 17.066667z m-682.666666-1.706667a17.066667 17.066667 0 0 1-17.066667-17.066667V170.666667a17.066667 17.066667 0 0 1 17.066667-17.066667h171.52a17.066667 17.066667 0 0 1 0 34.133333H187.733333v151.04a17.066667 17.066667 0 0 1-17.066666 17.066667z" p-id="23897" fill="#1296db"></path></svg>