<?xml version="1.0" standalone="no"?><!DOCTYPE svg PUBLIC "-//W3C//DTD SVG 1.1//EN" "http://www.w3.org/Graphics/SVG/1.1/DTD/svg11.dtd"><svg t="1708321028280" class="icon" viewBox="0 0 1024 1024" version="1.1" xmlns="http://www.w3.org/2000/svg" p-id="4261" xmlns:xlink="http://www.w3.org/1999/xlink" width="16" height="16"><path d="M853.333333 938.666667v-128h-85.333333v42.666666h-42.666667v85.333334h128zM256 810.666667H170.666667v128h128v-85.333334H256v-42.666666z m597.333333-170.666667v85.333333h-85.333333v-85.333333h85.333333z m0-170.666667v85.333334h-85.333333v-85.333334h85.333333z m0-170.666666v85.333333h-85.333333V298.666667h85.333333zM256 640v85.333333H170.666667v-85.333333h85.333333z m0-170.666667v85.333334H170.666667v-85.333334h85.333333z m0-170.666666v85.333333H170.666667V298.666667h85.333333zM170.666667 85.333333v128h85.333333V170.666667h42.666667V85.333333H170.666667z m682.666666 0v128h-85.333333V170.666667h-42.666667V85.333333h128z m-213.333333 768v85.333334h-85.333333v-85.333334h85.333333zM469.333333 170.666667H384V85.333333h85.333333v85.333334z m170.666667 0h-85.333333V85.333333h85.333333v85.333334z m-170.666667 682.666666v85.333334H384v-85.333334h85.333333z" fill="#1296db" p-id="4262"></path></svg>