<?xml version="1.0" standalone="no"?><!DOCTYPE svg PUBLIC "-//W3C//DTD SVG 1.1//EN" "http://www.w3.org/Graphics/SVG/1.1/DTD/svg11.dtd"><svg t="1706059936083" class="icon" viewBox="0 0 1038 1024" version="1.1" xmlns="http://www.w3.org/2000/svg" p-id="8313" xmlns:xlink="http://www.w3.org/1999/xlink" width="16" height="15"><path d="M1004.266667 644.266667c-12.8 0-21.333333-8.533333-21.333334-21.333334V388.266667c0-12.8 8.533333-21.333333 21.333334-21.333334s21.333333 8.533333 21.333333 21.333334v234.666666c0 12.8-8.533333 21.333333-21.333333 21.333334zM761.066667 887.466667H99.733333c-55.466667 0-98.133333-42.666667-98.133333-98.133334V388.266667c0-12.8 8.533333-21.333333 21.333333-21.333334s21.333333 8.533333 21.333334 21.333334v396.8c0 29.866667 25.6 55.466667 55.466666 55.466666h661.333334c12.8 0 21.333333 8.533333 21.333333 21.333334s-8.533333 25.6-21.333333 25.6z" fill="#1296db" p-id="8314"></path><path d="M918.933333 887.466667H825.066667c-12.8 0-21.333333-8.533333-21.333334-21.333334s8.533333-21.333333 21.333334-21.333333h93.866666c34.133333 0 64-29.866667 64-64v-85.333333c0-12.8 8.533333-21.333333 21.333334-21.333334s21.333333 8.533333 21.333333 21.333334v85.333333c0 59.733333-46.933333 106.666667-106.666667 106.666667z" fill="#1296db" p-id="8315"></path><path d="M513.6 618.666667c-12.8 0-29.866667-4.266667-42.666667-8.533334L18.666667 418.133333c-12.8-4.266667-17.066667-17.066667-12.8-29.866666 4.266667-12.8 17.066667-17.066667 29.866666-12.8l456.533334 187.733333c17.066667 8.533333 34.133333 8.533333 51.2 0L987.2 384c12.8-4.266667 21.333333 0 29.866667 12.8 4.266667 12.8 0 21.333333-12.8 29.866667l-448 187.733333c-17.066667 0-29.866667 4.266667-42.666667 4.266667z" fill="#1296db" p-id="8316"></path><path d="M22.933333 405.333333c-8.533333 0-17.066667-4.266667-21.333333-12.8-4.266667-12.8 0-21.333333 12.8-29.866666l456.533333-187.733334c25.6-12.8 55.466667-12.8 81.066667 0l448 187.733334c12.8 4.266667 17.066667 17.066667 12.8 29.866666-4.266667 12.8-17.066667 17.066667-29.866667 12.8L539.2 213.333333c-17.066667-8.533333-34.133333-8.533333-51.2 0L31.466667 405.333333H22.933333z" fill="#1296db" p-id="8317"></path></svg>