<?xml version="1.0" standalone="no"?><!DOCTYPE svg PUBLIC "-//W3C//DTD SVG 1.1//EN" "http://www.w3.org/Graphics/SVG/1.1/DTD/svg11.dtd"><svg t="1704289578178" class="icon" viewBox="0 0 1024 1024" version="1.1" xmlns="http://www.w3.org/2000/svg" p-id="17624" xmlns:xlink="http://www.w3.org/1999/xlink" width="16" height="16"><path d="M642.389333 170.666667a85.333333 85.333333 0 0 1 65.877334 31.104l210.773333 256a85.333333 85.333333 0 0 1 0 108.458666l-210.773333 256a85.333333 85.333333 0 0 1-65.877334 31.104H134.229333a42.666667 42.666667 0 0 1-32-70.912L341.333333 512 102.272 241.578667A42.666667 42.666667 0 0 1 134.229333 170.666667h508.16z m0 64h-460.8l207.701334 234.922666a64 64 0 0 1 0 84.821334L181.546667 789.333333h460.8a21.333333 21.333333 0 0 0 13.866666-5.077333l2.645334-2.688 210.773333-256a21.333333 21.333333 0 0 0 0-27.136l-210.773333-256a21.333333 21.333333 0 0 0-16.469334-7.765333z" p-id="17625" fill="#1296db"></path></svg>