<?xml version="1.0" standalone="no"?><!DOCTYPE svg PUBLIC "-//W3C//DTD SVG 1.1//EN" "http://www.w3.org/Graphics/SVG/1.1/DTD/svg11.dtd"><svg t="1706058662970" class="icon" viewBox="0 0 1024 1024" version="1.1" xmlns="http://www.w3.org/2000/svg" p-id="6384" xmlns:xlink="http://www.w3.org/1999/xlink" width="16" height="16"><path d="M241.379556 420.408889l362.040888 362.097778-100.579555 100.579555a256 256 0 0 1-340.764445 19.000889l-121.856 121.742222L0 983.608889l121.799111-121.742222a256 256 0 0 1 19.000889-340.821334L241.379556 420.408889z m-0.056889 80.440889l-60.302223 60.416a199.111111 199.111111 0 0 0 273.066667 289.564444l8.533333-7.964444 60.302223-60.416-281.6-281.6zM983.324444 0l40.220445 40.220444-121.742222 121.799112a256 256 0 0 1-19.057778 340.764444l-100.522667 100.636444-362.040889-362.040888 100.579556-100.579556a256 256 0 0 1 340.821333-19.000889L983.324444 0zM569.457778 172.942222l-8.533334 8.078222-60.302222 60.302223 281.6 281.6 60.302222-60.302223a199.111111 199.111111 0 0 0 8.078223-273.066666l-8.078223-8.533334a199.111111 199.111111 0 0 0-273.066666-8.021333z" fill="#1296db" p-id="6385"></path><path d="M405.276444 417.735111l40.220445 40.220445-120.661333 120.661333-40.277334-40.220445zM566.158222 578.56l40.220445 40.277333-120.661334 120.661334-40.220444-40.220445z" fill="#1296db" p-id="6386"></path></svg>