<?xml version="1.0" standalone="no"?><!DOCTYPE svg PUBLIC "-//W3C//DTD SVG 1.1//EN" "http://www.w3.org/Graphics/SVG/1.1/DTD/svg11.dtd"><svg t="1706252811647" class="icon" viewBox="0 0 1024 1024" version="1.1" xmlns="http://www.w3.org/2000/svg" p-id="16256" xmlns:xlink="http://www.w3.org/1999/xlink" width="16" height="16"><path d="M512 970.666667a184.490667 184.490667 0 0 1-131.413333-54.186667l-272.64-272.64a186.496 186.496 0 0 1 0-262.826667l272.64-272.64a186.496 186.496 0 0 1 262.826666 0l272.64 272.64a186.496 186.496 0 0 1 0 262.826667l-272.64 272.64A184.661333 184.661333 0 0 1 512 970.666667z m0-853.333334a120.96 120.96 0 0 0-86.186667 35.456L153.173333 425.386667a120.917333 120.917333 0 0 0-35.413333 86.186666 122.624 122.624 0 0 0 35.413333 86.229334l272.64 272.64a125.653333 125.653333 0 0 0 172.373334 0l272.64-272.64a122.624 122.624 0 0 0 0-172.373334L598.186667 152.746667A121.002667 121.002667 0 0 0 512 117.333333z" fill="#1296db" p-id="16257"></path><path d="M734.677333 779.946667L244.053333 289.28a32 32 0 0 1 45.184-45.226667l490.666667 490.666667a32.213333 32.213333 0 0 1 0 45.226667 31.914667 31.914667 0 0 1-45.226667 0z" fill="#1296db" p-id="16258"></path><path d="M244.053333 779.946667a32.213333 32.213333 0 0 1 0-45.226667l490.666667-490.666667a32 32 0 0 1 45.226667 45.226667l-490.666667 490.666667a31.914667 31.914667 0 0 1-45.226667 0z" fill="#1296db" p-id="16259"></path></svg>