<?xml version="1.0" standalone="no"?><!DOCTYPE svg PUBLIC "-//W3C//DTD SVG 1.1//EN" "http://www.w3.org/Graphics/SVG/1.1/DTD/svg11.dtd"><svg t="1706260025980" class="icon" viewBox="0 0 1024 1024" version="1.1" xmlns="http://www.w3.org/2000/svg" p-id="19549" xmlns:xlink="http://www.w3.org/1999/xlink" width="16" height="16"><path d="M143.872 240.128c-78.848 0-143.36 64-143.36 143.36 0 78.848 64.512 143.36 143.36 143.36s143.36-64.512 143.36-143.36c0-79.36-64-143.36-143.36-143.36z m0 199.168c-30.72 0-55.808-25.088-55.808-55.808S113.152 327.68 143.872 327.68 199.68 352.768 199.68 383.488c0.512 30.72-24.576 55.808-55.808 55.808z m0-234.496c27.136 0 49.152-22.016 49.152-49.152V50.688c0-27.136-22.016-49.152-49.152-49.152s-49.152 22.016-49.152 49.152v104.96c0.512 27.136 22.528 49.152 49.152 49.152m0 358.4c-27.136 0-49.152 22.016-49.152 49.152v362.496c0 27.136 22.016 49.152 49.152 49.152s49.152-22.016 49.152-49.152v-362.496c0-27.136-22.016-49.152-49.152-49.152M512 371.712c-78.848 0-143.36 64-143.36 143.36 0 78.848 64 143.36 143.36 143.36 78.848 0 143.36-64.512 143.36-143.36s-64.512-143.36-143.36-143.36z m0 199.168c-30.72 0-55.808-25.088-55.808-55.808s25.088-56.32 55.808-56.32 55.808 25.088 55.808 55.808-25.088 56.32-55.808 56.32z m0-236.544c27.136 0 49.152-22.016 49.152-49.152V49.152c0-27.136-22.016-49.152-49.152-49.152s-49.152 22.016-49.152 49.152v236.032c0 27.136 22.016 49.152 49.152 49.152m0 364.032c-27.136 0-49.152 22.016-49.152 49.152v226.304c0 27.136 22.016 49.152 49.152 49.152s49.152-22.016 49.152-49.152V747.52c0-27.136-22.016-49.152-49.152-49.152M880.128 496.64c-78.848 0-143.36 64.512-143.36 143.36s64.512 143.36 143.36 143.36 143.36-64 143.36-143.36c-0.512-78.848-64.512-143.36-143.36-143.36z m0 199.168c-30.72 0-55.808-25.088-55.808-55.808s25.088-55.808 55.808-55.808 55.808 25.088 55.808 55.808-25.088 55.808-55.808 55.808z m0-236.032c27.136 0 49.152-22.016 49.152-49.152V49.152c0-27.136-22.016-49.152-49.152-49.152s-49.152 22.016-49.152 49.152v361.472c0 27.136 22.016 49.152 49.152 49.152m0 364.032c-27.136 0-49.152 22.016-49.152 49.152v100.864c0 27.136 22.016 49.152 49.152 49.152s49.152-22.016 49.152-49.152v-100.864c-0.512-27.648-22.016-49.152-49.152-49.152" fill="#1296db" p-id="19550"></path></svg>