<?xml version="1.0" standalone="no"?><!DOCTYPE svg PUBLIC "-//W3C//DTD SVG 1.1//EN" "http://www.w3.org/Graphics/SVG/1.1/DTD/svg11.dtd"><svg t="1706252332823" class="icon" viewBox="0 0 1024 1024" version="1.1" xmlns="http://www.w3.org/2000/svg" p-id="6207" xmlns:xlink="http://www.w3.org/1999/xlink" width="16" height="16"><path d="M644.437333 132.608v455.054222c0 35.896889-29.127111 65.024-65.024 65.024H500.167111V587.662222h79.303111V132.608L124.302222 132.551111v455.111111h209.237334v65.024H124.302222a65.024 65.024 0 0 1-65.024-65.024v-455.111111c0-35.896889 29.127111-65.024 65.024-65.024l455.168 0.113778a64.910222 64.910222 0 0 1 64.967111 64.967111z m260.039111 260.039111l-209.237333-0.056889v65.024l209.237333 0.056889v455.054222H449.308444v-455.111111h79.303112V392.590222H449.365333c-35.896889 0-65.024 29.127111-65.024 65.024v455.111111c0 35.896889 29.127111 65.024 65.024 65.024H904.533333c35.896889 0 65.024-29.127111 65.024-65.024V457.671111a65.137778 65.137778 0 0 0-65.080889-65.024z" fill="#1296db" p-id="6208"></path></svg>