<?xml version="1.0" standalone="no"?><!DOCTYPE svg PUBLIC "-//W3C//DTD SVG 1.1//EN" "http://www.w3.org/Graphics/SVG/1.1/DTD/svg11.dtd"><svg t="1706316722864" class="icon" viewBox="0 0 1024 1024" version="1.1" xmlns="http://www.w3.org/2000/svg" p-id="9468" xmlns:xlink="http://www.w3.org/1999/xlink" width="16" height="16"><path d="M90.269538 821.878154v-264.664616h53.956924l84.125538 264.664616h95.547077L226.540308 539.017846c28.908308-15.753846 49.152-36.233846 60.652307-61.833846 11.500308-25.521231 17.329231-56.556308 17.329231-93.105231 0-121.304615-53.169231-181.956923-159.350154-181.956923H0v619.756308h90.269538z m51.357539-342.961231h-51.357539V285.696h46.946462c31.271385 0 52.460308 8.113231 63.724308 24.418462 5.277538 8.664615 8.822154 18.904615 10.555077 30.877538 1.811692 11.815385 2.678154 25.678769 2.678153 41.353846 0 15.596308-0.866462 29.380923-2.678153 41.275077a84.125538 84.125538 0 0 1-9.688616 30.089846 51.515077 51.515077 0 0 1-22.134154 18.668308 92.16 92.16 0 0 1-38.045538 6.537846z m325.710769 342.961231V579.899077h46.001231c33.634462 0 60.731077-5.671385 81.447385-17.014154a130.756923 130.756923 0 0 0 49.545846-47.419077c10.633846-16.777846 17.565538-34.816 20.795077-53.956923 3.229538-19.140923 4.883692-42.614154 4.883692-70.498461 0-37.100308-2.993231-66.56-8.900923-88.300308a132.096 132.096 0 0 0-31.822769-57.028923 125.794462 125.794462 0 0 0-51.357539-33.949539 204.406154 204.406154 0 0 0-65.457231-9.609846h-135.483077v619.756308h90.348308z m43.323077-325.553231h-43.323077V285.696h46.867692c17.723077 0 31.271385 2.599385 40.723693 7.876923 9.452308 5.198769 16.541538 12.760615 21.267692 22.606769 4.726154 9.846154 7.325538 21.267692 7.876923 34.343385 0.630154 13.075692 0.945231 26.860308 0.945231 41.353846 0 15.675077-0.472615 29.932308-1.339077 42.692923a78.532923 78.532923 0 0 1-8.428308 32.137846 49.703385 49.703385 0 0 1-22.055384 21.819077c-10.082462 5.198769-24.260923 7.876923-42.535385 7.876923zM880.64 827.076923c20.007385 0 38.754462-3.938462 56.162462-11.815385 17.408-7.798154 32.610462-18.353231 45.607384-31.66523 12.996923-13.390769 23.158154-28.593231 30.562462-45.686154 7.325538-17.171692 11.027692-35.288615 11.027692-54.429539V645.12h-90.269538v30.404923a76.406154 76.406154 0 0 1-5.277539 30.483692 53.090462 53.090462 0 0 1-13.312 19.140923 57.107692 57.107692 0 0 1-19.062154 10.003693 66.56 66.56 0 0 1-18.983384 3.072c-20.637538 0-34.973538-6.065231-42.929231-18.274462a80.974769 80.974769 0 0 1-11.972923-45.292307V357.927385c0-20.873846 3.702154-38.124308 11.027692-51.751385 7.404308-13.627077 22.291692-20.48 44.740923-20.48 17.092923 0 30.72 6.380308 40.723692 19.140923a71.049846 71.049846 0 0 1 14.966154 45.292308v29.538461H1024v-34.816c0-21.425231-3.702154-41.275077-11.027692-59.549538a145.014154 145.014154 0 0 0-30.562462-47.497846c-26.545231-27.254154-61.046154-40.881231-103.581538-40.881231-21.819077 0-41.747692 3.623385-59.707077 10.870154-18.038154 7.246769-33.476923 17.329231-46.473846 30.011077a132.962462 132.962462 0 0 0-30.089847 45.292307c-7.089231 17.329231-10.633846 36.233846-10.633846 56.556308v341.228308c0 28.356923 4.568615 51.751385 13.705846 70.104615 9.137231 18.195692 20.795077 33.083077 34.973539 44.740923 14.178462 11.657846 30.089846 19.692308 47.812923 24.418462 17.723077 4.647385 35.131077 6.931692 52.224 6.931692z" fill="#1296db" p-id="9469"></path></svg>