<?xml version="1.0" standalone="no"?><!DOCTYPE svg PUBLIC "-//W3C//DTD SVG 1.1//EN" "http://www.w3.org/Graphics/SVG/1.1/DTD/svg11.dtd"><svg t="1706316764976" class="icon" viewBox="0 0 1024 1024" version="1.1" xmlns="http://www.w3.org/2000/svg" p-id="12331" xmlns:xlink="http://www.w3.org/1999/xlink" width="16" height="16"><path d="M188 292v32s-31.544-0.836-40 12-7.6 87.96-4 116-1.472 36.436-8 44-32 24-32 24 23.928 5.688 32 20 9.376 36.908 8 48-7.968 94.08 0 104 44 20 44 20v36s-59.136 3.516-80-28-4-128-4-128 4.908-30.568-12-44-32-12-32-12v-32s25.36-5.484 32-16 12-44 12-44-18.348-98.492 4-128 80-24 80-24z" fill="#1296db" p-id="12332"></path><path d="M836 747.624v-31.964s31.548 0.832 40-12 7.6-87.86 4-115.872 1.472-36.4 8-43.952 32-23.972 32-23.972-23.928-5.684-32-19.98-9.376-36.868-8-47.948 7.968-93.976 0-103.884-44-19.98-44-19.98v-35.96s59.136-3.512 80 27.968 4 127.86 4 127.86-4.908 30.54 12 43.952 32 12 32 12v31.964s-25.36 5.48-32 16-12 43.952-12 43.952 18.348 98.4-4 127.86-80 23.956-80 23.956z" fill="#1296db" p-id="12333"></path><path d="M184 528.932h21.276v-63.84h28.368a20.772 20.772 0 0 1 10.64 10.64c4.856 8.944 14.184 53.2 14.184 53.2h21.276s-8.84-49.636-17.728-60.296a96.092 96.092 0 0 1-10.64-14.184 37.3 37.3 0 0 0 24.82-39.016c-2.596-30.272-31.912-39.012-31.912-39.012H184v152.508z m21.276-134.776h24.82s24.82 0.976 24.82 25.032-24.82 28.168-24.82 28.168h-24.82v-53.2z m99.288-17.732h78v17.732H325.84v46.108h53.2v17.736h-53.2v56.748h60.28v14.188H304.564V376.424z m177.3 24.828l10.636-17.736s-20.236-11.24-39.004-10.64-48 13.264-46.096 42.56 21.736 38.656 28.368 42.56 36.4 7.02 35.456 35.468-35.456 17.736-35.456 17.736l-24.824-10.644-10.636 21.284a72.52 72.52 0 0 0 39.004 10.64c21.968-0.772 58.528-6.332 56.736-46.108s-46.1-49.656-46.1-49.656-17.744-10.052-17.728-24.824a18.364 18.364 0 0 1 21.276-17.736c5.988 1.664 28.364 7.096 28.364 7.096z m24.8-24.828h102.832v21.28h-39.004v131.228h-24.82V397.704h-38.992v-21.28zM460.584 724l-14.184-46.108h-46.096L386.12 724h-24.824l46.1-152.508h31.912L485.404 724h-24.8z m-35.46-131.228l-21.276 70.936h39.008z m141.84 70.936h-39.008V724h-21.276v-152.508h60.284a49.264 49.264 0 0 1 0 92.216z m-10.64-74.484h-24.8v56.748h24.8a29.568 29.568 0 0 0 21.276-28.476 29.2 29.2 0 0 0-21.276-28.272z m70.924-17.724H652V724h-24.752v-152.5z m188-195.124H840v152.5h-24.752V376.376z m-127.724-7.044v14.188s-16.212-2.452-24.82 3.548-7.092 31.92-7.092 31.92h21.276v17.732H655.6v92.216h-21.276v-92.22h-21.276v-17.732h21.276s-3.492-29.6 7.092-42.56 46.108-7.092 46.108-7.092z m7.092 49.656h24.82v78.028s7.14 17.152 21.276 17.732 21.276-17.732 21.276-17.732v-78.032h24.812v109.948h-17.72l-3.544-14.188a42.748 42.748 0 0 1-31.916 17.736c-21.06 1.016-39.004-18-39.004-39.016v-74.48z" fill="#1296db" p-id="12334"></path></svg>