<?xml version="1.0" standalone="no"?><!DOCTYPE svg PUBLIC "-//W3C//DTD SVG 1.1//EN" "http://www.w3.org/Graphics/SVG/1.1/DTD/svg11.dtd"><svg t="1706316587341" class="icon" viewBox="0 0 1024 1024" version="1.1" xmlns="http://www.w3.org/2000/svg" p-id="4387" xmlns:xlink="http://www.w3.org/1999/xlink" width="16" height="16"><path d="M163.4816 153.088v716.2368h694.784V153.088H163.5328zM894.8736 92.16c13.4144 0 24.3712 10.9056 24.3712 24.4224v789.2992a24.4224 24.4224 0 0 1-24.3712 24.4224h-768a24.4224 24.4224 0 0 1-24.32-24.4224V116.6336c0-13.5168 10.8544-24.4224 24.32-24.4224l768-0.0512zM610.304 497.8688v-132.096H415.6416v132.096h194.6624z m281.7536-193.024a15.36 15.36 0 0 1 15.5648 15.3088v30.464a15.36 15.36 0 0 1-15.5648 15.2064H671.232v132.096h200.4992c7.8848 0 14.2848 6.8096 14.2848 15.2064v30.5152c0 8.3456-6.4 15.1552-14.336 15.1552H671.232v128.4096h194.56c7.8336 0 14.08 6.8608 14.08 15.3088v30.464c0 8.3456-6.2464 15.2064-14.0288 15.2064l-194.6112-0.0512v147.0976c0 5.9392-6.8096 10.6496-15.2064 10.6496h-30.5152c-8.3456 0-15.2064-4.7104-15.2064-10.6496v-147.0976l-194.6624 0.0512v151.04c0 5.888-6.8096 10.6496-15.2576 10.6496h-30.3616c-8.3968 0-15.2576-4.7616-15.2576-10.6496v-151.04H151.552c-7.68 0-14.08-6.7584-14.08-15.2064v-30.464c0-8.448 6.3488-15.2576 14.08-15.2576l203.2128-0.0512v-128.3584H146.7392c-7.8336 0-14.2848-6.8096-14.2848-15.2064v-30.5152c0-8.3968 6.4512-15.2576 14.2848-15.2576h207.9744v-132.096H126.7712a15.36 15.36 0 0 1-15.616-15.1552v-30.464a15.36 15.36 0 0 1 15.616-15.2576h765.2864z m-281.7536 254.0032H415.6416v128.3584h194.6624v-128.3584z" fill="#1296db" p-id="4388"></path></svg>