<?xml version="1.0" standalone="no"?><!DOCTYPE svg PUBLIC "-//W3C//DTD SVG 1.1//EN" "http://www.w3.org/Graphics/SVG/1.1/DTD/svg11.dtd"><svg t="1706259472531" class="icon" viewBox="0 0 1024 1024" version="1.1" xmlns="http://www.w3.org/2000/svg" p-id="18217" xmlns:xlink="http://www.w3.org/1999/xlink" width="16" height="16"><path d="M951.653787 70.327742c4.552689 5.132904 7.391341 11.402701 7.391341 18.251689 0 3.974521-0.559748 6.829546-1.697665 10.264784l0 0c-1.139963 2.835581-3.414773 5.672186-5.692652 7.968485l0 0L634.007263 424.788729l219.155349 0 0 0c6.829546 0 13.678534 2.856048 18.2302 7.408737l0 0c4.553713 5.132904 7.389294 11.383258 7.389294 18.232247 0 7.407714-2.835581 13.679557-7.389294 18.232247-4.551666 5.130857-11.401678 7.986905-18.2302 7.986905L571.961138 476.648864c-6.831592 0-13.660114-2.856048-18.213827-7.986905-4.552689-4.553713-7.391341-10.824533-7.391341-18.232247L546.355971 168.917154l0 0 0 0c0-6.829546 2.837628-13.099343 7.391341-17.672498l0-0.559748c4.553713-4.552689 11.382235-7.408737 18.213827-7.408737l0 0c6.829546 0 13.659091 2.856048 18.210757 7.408737l0 0c4.553713 5.132904 7.408737 11.402701 7.408737 18.232247l0 219.406059L915.20976 70.327742l0 0c2.27788-2.275833 5.134951-3.973498 8.546653-5.132904 2.837628-1.696642 6.251378-2.275833 9.68764-2.275833C940.271552 62.919005 947.102121 65.775053 951.653787 70.327742L951.653787 70.327742zM170.086282 545.603329l281.20352 0 0 0c7.397481 0 13.658068 2.835581 18.210757 7.408737l0 0c5.123694 4.553713 7.969509 11.383258 7.969509 18.232247l0 0 0 281.511535 0 0c0 6.829546-2.844791 13.661138-7.969509 18.231223l0 0c-4.553713 4.553713-10.813277 7.408737-18.210757 7.408737l0 0c-6.831592 0-13.091156-2.855024-18.213827-7.408737l0 0c-4.553713-4.571109-7.399527-11.402701-7.399527-18.231223L425.676447 633.350812 108.03811 951.325817l0 0c-2.276856 2.27788-5.122671 4.573155-7.967462 5.711072-3.415796 1.137916-6.829546 1.697665-10.245342 1.697665-6.839779 0-13.100366-2.835581-18.223037-7.408737l0 0 0 0c-4.553713-4.553713-7.398504-11.402701-7.398504-18.231223 0-3.414773 0.568958-6.831592 2.276856-9.686616l0 0c1.137916-3.412726 2.845815-6.269797 5.121648-8.547677l0 0 317.637314-317.973982L170.086282 596.886319l0 0c-6.830569 0-13.090133-2.856048-17.642822-7.408737l0 0 0 0c-5.132904-4.553713-7.977695-11.402701-7.977695-18.232247 0-6.848988 2.844791-13.678534 7.977695-18.232247l0 0C156.995125 548.43891 163.255713 545.603329 170.086282 545.603329L170.086282 545.603329z" fill="#1296db" p-id="18218"></path></svg>